PathFileType	4	(X/Y/Z)	 s04c0101.trc
DataRate	CameraRate	NumFrames	NumMarkers	Units	OrigDataRate	OrigDataStartFrame	OrigNumFrames
200	200	4	51	mm	200	501	2000
Frame#	Time	racr			lacr			c7			jug			rlel			rdr			llel			ldr			s2			lic			ric			lasi			rasi			rpsi			lpsi			rgt			lgt			rth1			rth2			rth3			rth4			rlfc			rmfc			rsh1			rsh2			rsh3			rsh4			rlmal			rmmal			rcal			rtoe			rmt5			lth1			lth2			lth4			lth3			llfc			lmfc			lsh1			lsh2			lsh3			lsh4			llmal			lmmal			lcal			ltoe			lmt1			lmt5			SBIKE			LBIKE			RBIKE			
		X1	Y1	Z1	X2	Y2	Z2	X3	Y3	Z3	X4	Y4	Z4	X5	Y5	Z5	X6	Y6	Z6	X7	Y7	Z7	X8	Y8	Z8	X9	Y9	Z9	X10	Y10	Z10	X11	Y11	Z11	X12	Y12	Z12	X13	Y13	Z13	X14	Y14	Z14	X15	Y15	Z15	X16	Y16	Z16	X17	Y17	Z17	X18	Y18	Z18	X19	Y19	Z19	X20	Y20	Z20	X21	Y21	Z21	X22	Y22	Z22	X23	Y23	Z23	X24	Y24	Z24	X25	Y25	Z25	X26	Y26	Z26	X27	Y27	Z27	X28	Y28	Z28	X29	Y29	Z29	X30	Y30	Z30	X31	Y31	Z31	X32	Y32	Z32	X33	Y33	Z33	X34	Y34	Z34	X35	Y35	Z35	X36	Y36	Z36	X37	Y37	Z37	X38	Y38	Z38	X39	Y39	Z39	X40	Y40	Z40	X41	Y41	Z41	X42	Y42	Z42	X43	Y43	Z43	X44	Y44	Z44	X45	Y45	Z45	X46	Y46	Z46	X47	Y47	Z47	X48	Y48	Z48	X49	Y49	Z49	X50	Y50	Z50	X51	Y51	Z51	
501	2.5050	483.622294	1431.733303	-156.071554	508.375772	1417.387741	-400.602407	463.252528	1475.729878	-285.537914	455.803670	1323.794402	-283.487841	495.282718	1137.500831	-10.556354	690.108010	921.428306	-84.502129	537.646352	1148.839853	-543.419935	704.574555	914.123029	-453.066994	-76.044199	1191.853280	-296.104855	90.031684	1198.878894	-453.297871	66.017366	1237.352361	-133.512036	NaN	NaN	NaN	104.316986	1193.969399	-144.831128	-57.312734	1245.910551	-260.305815	-49.621928	1237.131254	-334.764069	26.570162	1190.274922	-106.479168	35.568624	1095.144175	-460.876689	163.455292	1122.242169	-89.580840	251.093470	1107.336370	-92.215694	318.691681	1055.864094	-87.380724	263.095053	1135.764529	-115.216827	436.839710	974.235030	-105.402668	428.119102	952.345160	-221.598253	358.382835	880.192899	-86.964703	323.425725	798.945002	-102.394663	251.401573	752.413420	-112.345800	351.027372	781.963005	-123.814909	169.540576	622.068743	-124.483301	196.032998	623.970814	-206.566852	96.239075	615.778112	-167.731461	373.237453	495.752000	-145.963078	299.573934	498.559318	-94.184356	73.266010	1011.684340	-472.028112	133.137800	949.522350	-479.205163	164.932722	966.936897	-474.040686	154.981094	863.038207	-480.376392	217.919595	707.670304	-468.018738	254.910310	683.976926	-357.519147	205.000839	578.605254	-487.139334	211.349195	494.433100	-465.237437	174.128425	413.916613	-460.370099	241.287344	493.220697	-439.789114	146.645419	268.280558	-449.227145	142.892189	269.799508	-362.882413	70.026763	270.563837	-407.760162	349.286832	150.444597	-400.878762	272.855064	156.451137	-355.288614	272.442662	141.459066	-464.810880	-179.472726	941.682582	-278.182826	-4.254482	85.974581	-483.883482	-15.560189	80.477764	-83.399296	
502	2.5100	483.004110	1430.741774	-155.604058	507.125465	1416.208502	-400.000968	462.562530	1474.622468	-285.179503	454.806129	1322.481539	-282.663901	493.213303	1136.240737	-9.951281	689.504364	921.742844	-84.236614	536.444336	1147.937591	-543.110563	704.288808	913.891507	-452.864394	-77.201568	1191.341957	-295.975236	89.417174	1197.921727	-453.019261	64.467408	1237.143243	-133.350748	NaN	NaN	NaN	102.668708	1193.740862	-144.438648	-58.711109	1245.636963	-260.098515	-50.536773	1236.665727	-334.440389	25.074992	1190.275570	-106.240033	35.076266	1094.489599	-460.919623	161.776834	1121.512536	-89.906043	249.390285	1106.850320	-92.822180	317.131394	1055.400889	-88.510651	261.352528	1135.575813	-115.378756	435.723424	974.865812	-107.004151	426.997948	953.470730	-223.323441	358.906137	879.631316	-88.189277	325.226449	797.820269	-103.021841	253.884887	750.080817	-112.709219	353.005642	781.202196	-124.619321	173.850904	618.404477	-124.116767	199.848294	620.506644	-206.415853	100.412079	609.814400	-166.848425	380.326430	498.302266	-145.895187	307.089732	498.485468	-93.711362	73.761079	1011.676515	-472.468677	134.378010	950.127067	-478.655625	165.829442	967.736294	-472.573279	157.053032	863.997109	-481.110396	220.370669	708.951816	-468.809943	256.865498	684.441103	-358.938103	204.920933	580.095828	-488.390464	209.409893	495.852345	-466.198743	170.511881	416.186292	-461.272083	239.269920	494.116616	-440.784555	140.240483	270.638774	-450.160658	136.901915	272.285964	-363.219488	63.390938	274.007785	-408.426172	341.138991	150.117085	-401.190111	264.790556	157.164516	-355.695431	264.153563	142.094250	-465.056561	-179.540831	941.663877	-278.287611	-4.262587	85.996027	-483.862117	-15.735640	80.627554	-83.274743	
503	2.5150	482.239132	1429.866597	-154.997838	505.862882	1414.952323	-399.456736	461.722095	1473.565910	-284.658893	453.759968	1321.494070	-281.850351	491.094274	1134.926363	-9.424398	688.804587	922.131960	-84.012949	535.037649	1146.932107	-542.808363	704.067334	913.720834	-452.838503	-78.437522	1190.687017	-295.825122	88.922522	1196.873957	-452.727637	62.953753	1236.798169	-133.095746	NaN	NaN	NaN	101.201162	1193.527531	-144.044012	-60.108493	1245.178163	-259.939624	-51.764828	1236.138975	-334.172029	23.606134	1189.880486	-106.103649	34.625826	1093.686775	-460.968971	160.057709	1120.285897	-90.170486	247.724584	1105.666916	-93.487992	315.473141	1054.360247	-89.689466	259.577894	1134.700949	-115.585711	434.502562	974.644986	-108.623717	425.653781	953.304297	-225.074507	358.515221	878.011368	-89.220267	326.691587	795.983245	-103.701381	255.937411	746.853992	-113.123174	354.422891	779.259418	-125.902440	177.886336	613.812538	-123.683162	203.505100	616.168098	-206.188036	104.241752	602.967114	-165.878428	386.942710	500.938136	-145.893710	314.329040	498.113073	-92.875235	74.516095	1011.646352	-473.080555	136.030778	950.863434	-478.286839	167.003092	968.708296	-471.170048	159.806862	865.118772	-482.018568	223.344621	710.360480	-469.394011	259.528387	684.979164	-359.705053	205.482171	581.715505	-489.460328	208.012260	497.566082	-466.961067	167.424360	418.634233	-462.162995	237.716187	495.129156	-441.472550	134.083670	273.512206	-451.063029	131.140080	275.271025	-363.932831	56.715849	277.906606	-409.396116	333.119060	150.072788	-401.249561	256.648415	158.153648	-356.001826	256.083897	143.025979	-465.247729	-179.580818	941.650951	-278.259615	-4.251222	86.011529	-483.861999	-15.744343	80.622901	-83.271927	
504	2.5200	481.229250	1428.998864	-154.604527	504.526662	1413.577395	-398.947919	460.834580	1472.451307	-284.387643	452.614538	1320.234798	-281.025511	488.811079	1133.503215	-8.995050	688.074061	922.609047	-83.855355	533.347632	1145.781626	-542.585770	703.886479	913.693161	-452.975338	-79.628894	1189.750598	-295.714910	88.376057	1195.741317	-452.382072	61.415904	1236.318357	-132.824659	NaN	NaN	NaN	99.820625	1193.285817	-143.661173	-61.486806	1244.474239	-259.904875	-53.005469	1235.338635	-333.987935	22.174919	1189.173265	-106.013967	34.373192	1092.837397	-461.124241	158.318143	1118.430681	-90.575689	246.043943	1103.831873	-94.219479	313.758968	1052.538123	-90.987270	257.858634	1133.223603	-115.845045	433.147228	973.440742	-110.212654	424.076447	951.937784	-226.783546	358.343448	875.610746	-90.652311	327.738358	792.978298	-104.515237	257.809845	742.717600	-113.509117	355.653798	776.422642	-126.602976	181.694945	608.303300	-123.240629	206.920723	611.210325	-205.733725	107.852103	594.952853	-164.760127	393.311945	504.189404	-145.687454	321.276947	497.395437	-92.029562	75.557613	1011.757088	-474.239307	137.972125	951.635278	-478.098289	168.491712	969.737722	-469.882379	162.973765	866.143732	-482.420701	226.814041	711.795758	-469.742438	262.457104	685.582220	-360.098842	206.585671	583.689865	-490.154158	207.128945	499.460492	-467.395611	164.829182	421.542085	-462.898573	236.422577	496.641001	-441.683637	128.292357	276.708905	-451.992120	125.940207	278.182192	-363.791703	50.614758	282.134711	-410.230481	325.197993	150.289866	-401.118965	248.794093	159.517175	-356.226147	248.269910	144.330066	-465.310698	-179.634542	941.614933	-278.245734	-4.253975	86.004090	-483.854722	-15.743031	80.610417	-83.265463	
